<?xml version="1.0" encoding="utf-8"?>
<!-- Generator: Adobe Illustrator 16.0.0, SVG Export Plug-In . SVG Version: 6.00 Build 0)  -->
<!DOCTYPE svg PUBLIC "-//W3C//DTD SVG 1.1//EN" "http://www.w3.org/Graphics/SVG/1.1/DTD/svg11.dtd">
<svg version="1.1"
	 id="svg3126" sodipodi:docname="boton-mail-1.svg" inkscape:version="0.48.2 r9819" xmlns:dc="http://purl.org/dc/elements/1.1/" xmlns:cc="http://creativecommons.org/ns#" xmlns:rdf="http://www.w3.org/1999/02/22-rdf-syntax-ns#" xmlns:svg="http://www.w3.org/2000/svg" xmlns:sodipodi="http://sodipodi.sourceforge.net/DTD/sodipodi-0.dtd" xmlns:inkscape="http://www.inkscape.org/namespaces/inkscape"
	 xmlns="http://www.w3.org/2000/svg" xmlns:xlink="http://www.w3.org/1999/xlink" x="0px" y="0px" width="136px" height="136px"
	 viewBox="0 0 136 136" enable-background="new 0 0 136 136" xml:space="preserve">
<sodipodi:namedview  inkscape:window-maximized="1" inkscape:window-y="-4" inkscape:window-x="-4" inkscape:window-height="842" inkscape:window-width="1440" fit-margin-bottom="0" fit-margin-right="0" inkscape:current-layer="layer1" inkscape:document-units="px" inkscape:pageshadow="2" inkscape:pageopacity="0.0" fit-margin-left="0" fit-margin-top="0" showgrid="false" inkscape:cy="85.267876" inkscape:cx="-8.3103755" inkscape:zoom="1.6617221" borderopacity="1.0" bordercolor="#666666" pagecolor="#ffffff" id="base">
	</sodipodi:namedview>
<g>
	<g>
		<g enable-background="new    ">
			<g>
				<path fill="#F7B234" d="M44.625,5.013l32.239,29.94L60.519,62.958l-36.543-4.651c1.997-7.069,4.091-14.085,6.603-21.16
					C34.71,25.761,39.384,15.099,44.625,5.013z"/>
			</g>
			<g>
				<polygon fill="#9F7526" points="60.519,62.958 45.541,82.938 9,78.287 23.976,58.307 				"/>
			</g>
			<g enable-background="new    ">
				<defs>
					<path id="SVGID_1_" enable-background="new    " d="M23.976,58.307L9,78.287c1.997-7.075,4.085-14.085,6.6-21.161
						c4.131-11.391,8.802-22.048,14.048-32.133l14.976-19.98c-5.24,10.085-9.915,20.748-14.046,32.133
						C28.067,44.222,25.973,51.237,23.976,58.307z"/>
				</defs>
				<clipPath id="SVGID_2_">
					<use xlink:href="#SVGID_1_"  overflow="visible"/>
				</clipPath>
				<g clip-path="url(#SVGID_2_)" enable-background="new    ">
					<path fill="#9B7225" d="M23.976,58.307L9,78.287c1.997-7.075,4.085-14.085,6.6-21.161c4.131-11.391,8.802-22.048,14.048-32.133
						l14.976-19.98c-5.24,10.085-9.915,20.748-14.046,32.133C28.067,44.222,25.973,51.237,23.976,58.307"/>
				</g>
			</g>
		</g>
	</g>
</g>
<g>
	<g>
		<g enable-background="new    ">
			<g>
				<path fill="#C5902D" d="M97.392,28.811c4.245-10.199,9.019-19.747,14.311-28.81l1.963,36.38L97.392,28.811z"/>
			</g>
			<g>
				<polygon fill="#E4A531" points="111.702,0.001 126.388,5.093 128.351,41.471 113.665,36.381 				"/>
			</g>
		</g>
	</g>
</g>
<g>
	<g>
		<g enable-background="new    ">
			<g>
				<polygon fill="#DB9E30" points="45.606,114.835 57.304,118.718 53.66,135.284 37.452,126.533 				"/>
			</g>
			<g>
				<polygon fill="#BE8B2C" points="45.606,114.835 40.952,108.262 52.653,112.145 57.304,118.718 				"/>
			</g>
			<g>
				<polygon fill="#9A7225" points="37.452,126.533 32.801,119.959 40.952,108.262 45.606,114.835 				"/>
			</g>
		</g>
	</g>
</g>
<g>
	<g>
		<g enable-background="new    ">
			<g>
				<polygon fill="#9F7526" points="84.59,57.169 96.544,62.677 105.204,71.575 93.251,66.067 				"/>
			</g>
			<g>
				<path fill="#F4B033" d="M84.59,57.169l8.661,8.898l-8.899,20.279l-10.51-15.86C77.324,65.852,80.903,61.416,84.59,57.169z"/>
			</g>
			<g>
				<polygon fill="#AA7D28" points="93.251,66.067 105.204,71.575 96.312,91.852 84.352,86.347 				"/>
			</g>
		</g>
	</g>
</g>
</svg>
